<svg width="24" height="24" viewBox="0 0 24 24" fill="none" xmlns="http://www.w3.org/2000/svg">
<path d="M17.75 3.47908H22.35C22.655 3.47908 22.9475 3.59123 23.1632 3.79086C23.3788 3.99049 23.5 4.26125 23.5 4.54357V21.5754C23.5 21.8577 23.3788 22.1285 23.1632 22.3281C22.9475 22.5277 22.655 22.6399 22.35 22.6399H1.65C1.345 22.6399 1.05249 22.5277 0.836827 22.3281C0.62116 22.1285 0.5 21.8577 0.5 21.5754V4.54357C0.5 4.26125 0.62116 3.99049 0.836827 3.79086C1.05249 3.59123 1.345 3.47908 1.65 3.47908H6.25V1.3501H8.55V3.47908H15.45V1.3501H17.75V3.47908ZM15.45 5.60806H8.55V7.73704H6.25V5.60806H2.8V9.86602H21.2V5.60806H17.75V7.73704H15.45V5.60806ZM21.2 11.995H2.8V20.5109H21.2V11.995Z" fill="#126FBA"/>
</svg>
