<svg width="21" height="21" viewBox="0 0 21 21" fill="none" xmlns="http://www.w3.org/2000/svg">
<g clip-path="url(#clip0_409_121)">
<path fill-rule="evenodd" clip-rule="evenodd" d="M19.4708 14.4931C18.0649 14.4931 16.7149 14.2679 15.4781 13.8747C15.0843 13.7621 14.6346 13.8181 14.3534 14.1558L11.8787 16.63C8.67303 14.9994 6.08633 12.4122 4.45519 9.20648L6.92995 6.73235C7.21107 6.45118 7.32337 6.0014 7.21107 5.60761C6.76098 4.31426 6.53611 2.96429 6.53611 1.55833C6.53611 0.939945 6.03003 0.433594 5.41138 0.433594H1.47471C0.856063 0.433594 0.349976 0.939945 0.349976 1.55833C0.349976 12.1309 8.89826 20.6792 19.4708 20.6792C20.0892 20.6792 20.5956 20.1728 20.5956 19.5545V15.6178C20.5956 14.9994 20.0892 14.4931 19.4708 14.4931V14.4931Z" fill="white"/>
</g>
<defs>
<clipPath id="clip0_409_121">
<rect width="21" height="21" fill="white"/>
</clipPath>
</defs>
</svg>
