<svg width="24" height="37" viewBox="0 0 24 37" fill="none" xmlns="http://www.w3.org/2000/svg">
<g clip-path="url(#clip0_409_73)">
<path fill-rule="evenodd" clip-rule="evenodd" d="M11.8429 8.06808C9.44651 8.06808 7.50387 10.0107 7.50387 12.4071C7.50387 14.8035 9.44651 16.7461 11.8429 16.7461C14.2392 16.7461 16.1819 14.8035 16.1819 12.4071C16.1819 10.0107 14.2392 8.06808 11.8429 8.06808ZM6.43188 12.4071C6.43188 9.41868 8.85447 6.99609 11.8429 6.99609C14.8313 6.99609 17.2539 9.41868 17.2539 12.4071C17.2539 15.3955 14.8313 17.8181 11.8429 17.8181C8.85447 17.8181 6.43188 15.3955 6.43188 12.4071Z" fill="white"/>
<path fill-rule="evenodd" clip-rule="evenodd" d="M11.8429 1.97335C4.89291 1.97335 -0.910392 8.91269 2.58558 17.07C4.4024 21.3092 6.82892 25.8599 8.80564 29.3572C9.79317 31.1044 10.6667 32.5857 11.2933 33.6299C11.5071 33.9862 11.692 34.2915 11.8429 34.5391C11.9938 34.2915 12.1788 33.9862 12.3926 33.6299C13.0191 32.5857 13.8927 31.1044 14.8802 29.3572C16.8569 25.8599 19.2835 21.3092 21.1003 17.07C24.5963 8.91269 18.793 1.97335 11.8429 1.97335ZM11.8429 35.5624C11.3884 35.8464 11.3884 35.8464 11.3883 35.8463L11.3837 35.8389L11.3703 35.8173L11.3179 35.733C11.272 35.6589 11.2044 35.5493 11.1171 35.407C10.9425 35.1224 10.6892 34.7067 10.374 34.1814C9.74372 33.1308 8.86535 31.6414 7.87241 29.8847C5.88819 26.3741 3.43971 21.7843 1.60027 17.4922C-2.21625 8.58702 4.16795 0.901367 11.8429 0.901367C19.5179 0.901367 25.9021 8.58702 22.0856 17.4922C20.2462 21.7843 17.7977 26.3741 15.8135 29.8847C14.8205 31.6414 13.9421 33.1308 13.3118 34.1814C12.9966 34.7067 12.7434 35.1224 12.5688 35.407C12.4815 35.5493 12.4138 35.6589 12.3679 35.733L12.3156 35.8173L12.3022 35.8389L12.2978 35.8459C12.2977 35.846 12.2975 35.8464 11.8429 35.5624ZM11.8429 35.5624L12.2978 35.8459C12.1999 36.0026 12.0277 36.0983 11.8429 36.0983C11.6581 36.0983 11.4863 36.003 11.3883 35.8463L11.8429 35.5624Z" fill="white"/>
</g>
<defs>
<clipPath id="clip0_409_73">
<rect width="24" height="37" fill="white"/>
</clipPath>
</defs>
</svg>
