<svg width="57" height="56" viewBox="0 0 57 56" fill="none" xmlns="http://www.w3.org/2000/svg">
<g clip-path="url(#clip0_276_1434)">
<path d="M4.42882 21.865C7.48683 18.6165 11.1781 16.0291 15.2748 14.2624C19.3716 12.4958 23.7868 11.5874 28.2483 11.5934C37.6341 11.5934 46.0925 15.5374 52.0677 21.865C52.2755 22.0912 52.5262 22.2738 52.8052 22.4023C53.0842 22.5309 53.3859 22.6027 53.6929 22.6136C53.9999 22.6245 54.306 22.5743 54.5934 22.4659C54.8808 22.3575 55.1438 22.1931 55.3671 21.9822C55.5905 21.7713 55.7697 21.5181 55.8943 21.2374C56.019 20.9567 56.0866 20.654 56.0933 20.3469C56.1 20.0398 56.0456 19.7344 55.9333 19.4485C55.821 19.1626 55.6529 18.9019 55.439 18.6815C51.9477 14.9738 47.7339 12.0206 43.0574 10.004C38.381 7.98741 33.341 6.95011 28.2483 6.95608C17.5361 6.95608 7.87201 11.4658 1.05751 18.6815C0.843569 18.9019 0.675558 19.1626 0.563233 19.4485C0.450909 19.7344 0.396511 20.0398 0.403199 20.3469C0.409887 20.654 0.477528 20.9567 0.602192 21.2374C0.726857 21.5181 0.906061 21.7713 1.12939 21.9822C1.35273 22.1931 1.61574 22.3575 1.90315 22.4659C2.19056 22.5743 2.49664 22.6245 2.80362 22.6136C3.1106 22.6027 3.41235 22.5309 3.69134 22.4023C3.97034 22.2738 4.22102 22.0912 4.42882 21.865Z" fill="#3E4958"/>
<path d="M28.2483 20.868C25.0896 20.864 21.9636 21.5073 19.0632 22.7583C16.1628 24.0093 13.5496 25.8414 11.3848 28.1416C11.1769 28.3678 10.9263 28.5505 10.6473 28.679C10.3683 28.8075 10.0665 28.8793 9.75955 28.8902C9.45258 28.9011 9.14649 28.8509 8.85908 28.7425C8.57167 28.6341 8.30866 28.4697 8.08533 28.2588C7.86199 28.0479 7.68279 27.7948 7.55812 27.514C7.43346 27.2333 7.36582 26.9306 7.35913 26.6235C7.35244 26.3164 7.40684 26.011 7.51917 25.7251C7.63149 25.4393 7.7995 25.1785 8.01344 24.9581C10.6117 22.1989 13.7475 20.0011 17.2275 18.5001C20.7076 16.9991 24.4583 16.2268 28.2483 16.2307C32.0382 16.2268 35.7889 16.9991 39.269 18.5001C42.7491 20.0011 45.8849 22.1989 48.4831 24.9581C48.697 25.1785 48.865 25.4393 48.9773 25.7251C49.0897 26.011 49.1441 26.3164 49.1374 26.6235C49.1307 26.9306 49.063 27.2333 48.9384 27.514C48.8137 27.7948 48.6345 28.0479 48.4112 28.2588C48.1878 28.4697 47.9248 28.6341 47.6374 28.7425C47.35 28.8509 47.0439 28.9011 46.737 28.8902C46.43 28.8793 46.1282 28.8075 45.8492 28.679C45.5702 28.5505 45.3196 28.3678 45.1118 28.1416C42.9469 25.8414 40.3337 24.0093 37.4333 22.7583C34.5329 21.5073 31.4069 20.864 28.2483 20.868Z" fill="#3E4958"/>
<path d="M19.3053 33.3978C21.8079 31.29 24.9762 30.1367 28.2483 30.1424C31.6567 30.1424 34.7706 31.3644 37.1913 33.3978C37.6623 33.7932 38.2712 33.9853 38.8838 33.9318C39.4965 33.8783 40.0629 33.5837 40.4583 33.1126C40.8537 32.6416 41.0458 32.0327 40.9923 31.4201C40.9388 30.8074 40.6441 30.2411 40.1731 29.8456C36.8349 27.0369 32.6109 25.4994 28.2483 25.5051C23.8857 25.4994 19.6616 27.0369 16.3235 29.8456C15.8524 30.2411 15.5578 30.8074 15.5043 31.4201C15.4508 32.0327 15.6429 32.6416 16.0383 33.1126C16.4337 33.5837 17 33.8783 17.6127 33.9318C18.2254 33.9853 18.8342 33.7932 19.3053 33.3978Z" fill="#3E4958"/>
<path fill-rule="evenodd" clip-rule="evenodd" d="M28.2482 34.7798C26.4033 34.7798 24.6341 35.5126 23.3296 36.8171C22.0251 38.1216 21.2922 39.8909 21.2922 41.7357C21.2922 43.5805 22.0251 45.3498 23.3296 46.6543C24.6341 47.9588 26.4033 48.6917 28.2482 48.6917C30.093 48.6917 31.8623 47.9588 33.1668 46.6543C34.4713 45.3498 35.2041 43.5805 35.2041 41.7357C35.2041 39.8909 34.4713 38.1216 33.1668 36.8171C31.8623 35.5126 30.093 34.7798 28.2482 34.7798ZM25.9295 41.7357C25.9295 41.1208 26.1738 40.531 26.6086 40.0962C27.0435 39.6614 27.6332 39.4171 28.2482 39.4171C28.8631 39.4171 29.4529 39.6614 29.8877 40.0962C30.3225 40.531 30.5668 41.1208 30.5668 41.7357C30.5668 42.3507 30.3225 42.9404 29.8877 43.3753C29.4529 43.8101 28.8631 44.0544 28.2482 44.0544C27.6332 44.0544 27.0435 43.8101 26.6086 43.3753C26.1738 42.9404 25.9295 42.3507 25.9295 41.7357Z" fill="#3E4958"/>
</g>
<defs>
<clipPath id="clip0_276_1434">
<rect width="55.6475" height="55.6475" fill="white" transform="translate(0.424438)"/>
</clipPath>
</defs>
</svg>
