<svg width="57" height="56" viewBox="0 0 57 56" fill="none" xmlns="http://www.w3.org/2000/svg">
<path d="M25.2742 38.2576C24.813 38.2576 24.3707 38.4408 24.0446 38.767C23.7185 39.0931 23.5353 39.5354 23.5353 39.9966V43.4746C23.5353 43.9358 23.7185 44.3781 24.0446 44.7042C24.3707 45.0304 24.813 45.2136 25.2742 45.2136C25.7354 45.2136 26.1778 45.0304 26.5039 44.7042C26.83 44.3781 27.0132 43.9358 27.0132 43.4746V39.9966C27.0132 39.5354 26.83 39.0931 26.5039 38.767C26.1778 38.4408 25.7354 38.2576 25.2742 38.2576ZM18.3183 38.2576C17.8571 38.2576 17.4148 38.4408 17.0887 38.767C16.7625 39.0931 16.5793 39.5354 16.5793 39.9966V43.4746C16.5793 43.9358 16.7625 44.3781 17.0887 44.7042C17.4148 45.0304 17.8571 45.2136 18.3183 45.2136C18.7795 45.2136 19.2218 45.0304 19.5479 44.7042C19.8741 44.3781 20.0573 43.9358 20.0573 43.4746V39.9966C20.0573 39.5354 19.8741 39.0931 19.5479 38.767C19.2218 38.4408 18.7795 38.2576 18.3183 38.2576ZM32.2302 38.2576C31.769 38.2576 31.3266 38.4408 31.0005 38.767C30.6744 39.0931 30.4912 39.5354 30.4912 39.9966V43.4746C30.4912 43.9358 30.6744 44.3781 31.0005 44.7042C31.3266 45.0304 31.769 45.2136 32.2302 45.2136C32.6914 45.2136 33.1337 45.0304 33.4598 44.7042C33.7859 44.3781 33.9692 43.9358 33.9692 43.4746V39.9966C33.9692 39.5354 33.7859 39.0931 33.4598 38.767C33.1337 38.4408 32.6914 38.2576 32.2302 38.2576ZM39.1861 38.2576C38.7249 38.2576 38.2826 38.4408 37.9565 38.767C37.6303 39.0931 37.4471 39.5354 37.4471 39.9966V43.4746C37.4471 43.9358 37.6303 44.3781 37.9565 44.7042C38.2826 45.0304 38.7249 45.2136 39.1861 45.2136C39.6473 45.2136 40.0896 45.0304 40.4158 44.7042C40.7419 44.3781 40.9251 43.9358 40.9251 43.4746V39.9966C40.9251 39.5354 40.7419 39.0931 40.4158 38.767C40.0896 38.4408 39.6473 38.2576 39.1861 38.2576ZM49.62 13.9119H7.8844C6.96199 13.9119 6.07735 14.2783 5.42511 14.9305C4.77286 15.5828 4.40643 16.4674 4.40643 17.3898V33.0407C4.40643 33.9631 4.77286 34.8477 5.42511 35.5C6.07735 36.1522 6.96199 36.5187 7.8844 36.5187H49.62C50.5424 36.5187 51.4271 36.1522 52.0793 35.5C52.7315 34.8477 53.098 33.9631 53.098 33.0407V17.3898C53.098 16.4674 52.7315 15.5828 52.0793 14.9305C51.4271 14.2783 50.5424 13.9119 49.62 13.9119ZM44.4031 31.3017H13.1014C12.6401 31.3017 12.1978 31.1185 11.8717 30.7924C11.5456 30.4662 11.3624 30.0239 11.3624 29.5627C11.3624 29.1015 11.5456 28.6592 11.8717 28.3331C12.1978 28.0069 12.6401 27.8237 13.1014 27.8237H44.4031C44.8643 27.8237 45.3066 28.0069 45.6327 28.3331C45.9588 28.6592 46.142 29.1015 46.142 29.5627C46.142 30.0239 45.9588 30.4662 45.6327 30.7924C45.3066 31.1185 44.8643 31.3017 44.4031 31.3017Z" fill="#3E4958"/>
</svg>
