<svg width="56" height="56" viewBox="0 0 56 56" fill="none" xmlns="http://www.w3.org/2000/svg">
<path d="M30.4827 49.561H25.2657V53.039H30.4827V49.561Z" fill="#3E4958"/>
<path d="M33.0911 46.083H22.6572C22.2225 46.083 21.7878 46.5177 21.7878 46.9525C21.7878 47.3872 22.2225 47.822 22.6572 47.822H33.0911C33.5259 47.822 33.9606 47.3872 33.9606 46.9525C33.9606 46.5177 33.5259 46.083 33.0911 46.083ZM19.4401 37.9098C19.4401 37.9098 23.5267 40.6921 23.4398 44.344H32.2217C32.1347 40.5182 36.2213 37.9098 36.2213 37.9098C40.0471 34.6926 42.3078 30.0843 42.5686 25.2152H13.0928C13.3537 30.1713 15.6144 34.7796 19.4401 37.9098ZM29.6132 39.1271H26.1352C25.7005 39.1271 25.2657 38.6923 25.2657 38.2576C25.2657 37.8228 25.7005 37.3881 26.1352 37.3881H29.6132C30.0479 37.3881 30.4827 37.8228 30.4827 38.2576C30.4827 38.6923 30.0479 39.1271 29.6132 39.1271ZM31.3522 35.6491H24.3962C23.9615 35.6491 23.5267 35.2143 23.5267 34.7796C23.5267 34.3449 23.9615 33.9101 24.3962 33.9101H31.3522C31.7869 33.9101 32.2217 34.3449 32.2217 34.7796C32.2217 35.2143 31.7869 35.6491 31.3522 35.6491ZM33.0911 32.1711H22.6572C22.2225 32.1711 21.7878 31.7364 21.7878 31.3016C21.7878 30.8669 22.2225 30.4321 22.6572 30.4321H33.0911C33.5259 30.4321 33.9606 30.8669 33.9606 31.3016C33.9606 31.7364 33.5259 32.1711 33.0911 32.1711ZM35.8735 32.5189C37.0039 31.0408 37.7864 29.4757 38.395 27.5628C38.5689 27.1281 39.0037 26.8672 39.5254 26.9542C39.9601 27.1281 40.221 27.5628 40.0471 28.0845C39.3515 30.1713 38.482 31.9972 37.1778 33.5623C37.0039 33.8232 36.4822 34.084 35.9605 33.7362C35.6996 33.3884 35.6127 32.8667 35.8735 32.5189ZM20.9183 26.9542H34.8301C35.2649 26.9542 35.6996 27.3889 35.6996 27.8237C35.6996 28.2584 35.2649 28.6932 34.8301 28.6932H20.9183C20.4835 28.6932 20.0488 28.2584 20.0488 27.8237C20.0488 27.3889 20.4835 26.9542 20.9183 26.9542ZM43.525 18.2593H12.2233C11.7886 18.2593 11.3539 18.694 11.3539 19.1287V22.6067C11.3539 23.0415 11.7886 23.4762 12.2233 23.4762H43.525C43.9598 23.4762 44.3945 23.0415 44.3945 22.6067V19.1287C44.3945 18.694 43.9598 18.2593 43.525 18.2593ZM15.7013 21.7372H13.9623C13.5276 21.7372 13.0928 21.3025 13.0928 20.8677C13.0928 20.433 13.5276 19.9982 13.9623 19.9982H15.7013C16.1361 19.9982 16.5708 20.433 16.5708 20.8677C16.5708 21.3025 16.1361 21.7372 15.7013 21.7372ZM26.1352 21.7372H19.1793C18.7445 21.7372 18.3098 21.3025 18.3098 20.8677C18.3098 20.433 18.7445 19.9982 19.1793 19.9982H26.1352C26.57 19.9982 27.0047 20.433 27.0047 20.8677C27.0047 21.3025 26.57 21.7372 26.1352 21.7372ZM39.1776 3.47789C39.1776 3.04314 38.7428 2.6084 38.3081 2.6084C37.8734 2.6084 37.4386 3.04314 37.4386 3.47789V16.5203H39.1776V3.47789ZM18.3098 3.47789C18.3098 3.04314 17.875 2.6084 17.4403 2.6084C17.0055 2.6084 16.5708 3.04314 16.5708 3.47789V16.5203H18.3098V3.47789Z" fill="#3E4958"/>
</svg>
