<svg width="57" height="56" viewBox="0 0 57 56" fill="none" xmlns="http://www.w3.org/2000/svg">
<path d="M37.7852 43.2574L39.7328 32.1714H28.3916V43.2574H37.7852Z" fill="#3E4958"/>
<path d="M36.7586 13.1512H28.935V9.15815C28.9411 8.48503 29.1408 7.82789 29.5102 7.26516C29.8796 6.70242 30.4031 6.25785 31.0182 5.9845L35.3883 4.03238C35.494 3.98741 35.5898 3.92188 35.67 3.83958C35.7502 3.75729 35.8133 3.65987 35.8555 3.55299C35.8978 3.44612 35.9184 3.33192 35.9161 3.21702C35.9138 3.10212 35.8888 2.98881 35.8423 2.88369C35.7959 2.77856 35.7291 2.68371 35.6457 2.60464C35.5623 2.52557 35.464 2.46386 35.3565 2.4231C35.2491 2.38234 35.1346 2.36333 35.0197 2.36719C34.9049 2.37104 34.7919 2.39768 34.6875 2.44556L30.3057 4.39714C29.3846 4.80798 28.6015 5.47553 28.05 6.31989C27.4985 7.16426 27.202 8.14966 27.196 9.15815V13.1512H20.2418C18.0029 13.1512 16.1304 14.6728 15.7012 16.6291H41.2993C40.87 14.6728 38.9973 13.1512 36.7586 13.1512ZM41.2264 23.5851H15.7741L20.9738 53.2565H36.0269L37.4808 44.9963H27.5034C27.3916 44.999 27.2805 44.9791 27.1766 44.9378C27.0727 44.8966 26.9782 44.8347 26.8988 44.7561C26.8194 44.6774 26.7566 44.5836 26.7143 44.4801C26.672 44.3766 26.651 44.2657 26.6526 44.1539V31.2979C26.6506 31.1849 26.6711 31.0727 26.7129 30.9677C26.7548 30.8627 26.8171 30.7672 26.8963 30.6866C26.9756 30.606 27.07 30.542 27.1743 30.4983C27.2785 30.4547 27.3904 30.4322 27.5034 30.4323H40.0375L41.2264 23.5851ZM14.5993 21.8461H42.4013C42.8625 21.8461 43.3048 21.6629 43.6309 21.3368C43.957 21.0106 44.1403 20.5683 44.1403 20.1071C44.1403 19.6459 43.957 19.2036 43.6309 18.8775C43.3048 18.5513 42.8625 18.3681 42.4013 18.3681H14.5993C14.1381 18.3681 13.6957 18.5513 13.3696 18.8775C13.0435 19.2036 12.8603 19.6459 12.8603 20.1071C12.8603 20.5683 13.0435 21.0106 13.3696 21.3368C13.6957 21.6629 14.1381 21.8461 14.5993 21.8461Z" fill="#3E4958"/>
</svg>
