<svg width="56" height="56" viewBox="0 0 56 56" fill="none" xmlns="http://www.w3.org/2000/svg">
<g clip-path="url(#clip0_276_1457)">
<path d="M12.7071 13.0771C10.6203 11.5932 10.1102 8.71804 11.5709 6.60808C13.0317 4.5213 15.93 4.0112 18.0399 5.47194C20.1267 6.95587 20.6368 9.83099 19.1761 11.941C17.6921 14.0277 14.817 14.5378 12.7071 13.0771ZM37.4006 46.3728C37.4006 45.0976 36.3572 44.0542 35.082 44.0542H21.0078C17.5762 44.0542 14.6547 41.5501 14.1446 38.1648L9.94787 18.039C9.84288 17.5268 9.56378 17.0668 9.158 16.7371C8.75222 16.4074 8.2448 16.2284 7.72197 16.2305C6.28441 16.2305 5.21783 17.5521 5.49607 18.9665L9.5537 38.8604C9.97962 41.5988 11.3705 44.0946 13.4752 45.8974C15.5799 47.7002 18.2597 48.6912 21.031 48.6915H35.082C36.3572 48.6915 37.4006 47.6481 37.4006 46.3728ZM36.334 34.7796H26.6189L24.2307 25.2732C27.1986 26.9426 30.3288 28.241 33.7372 28.2874C35.082 28.3106 36.1717 27.1513 36.1717 25.8065C36.1717 24.4385 35.0356 23.3951 33.6676 23.3487C30.6302 23.2559 27.5696 22.0503 25.2973 20.2649L21.4947 17.3202C20.9614 16.9029 20.3586 16.6246 19.7326 16.4391C18.9878 16.2194 18.2029 16.1719 17.4371 16.3H17.3907C16.0253 16.5424 14.811 17.3143 14.012 18.4477C13.2129 19.5811 12.894 20.9842 13.1244 22.3517L16.2546 36.0781C16.5604 37.6686 17.4103 39.1031 18.6584 40.1354C19.9065 41.1677 21.4749 41.7335 23.0946 41.7355H38.9773L46.1419 47.3467C47.1157 48.1118 48.5069 48.0191 49.3648 47.1612C50.4082 46.1178 50.2923 44.4252 49.133 43.5209L39.186 35.7534C38.3694 35.122 37.3663 34.7794 36.334 34.7796Z" fill="#3E4958"/>
</g>
<defs>
<clipPath id="clip0_276_1457">
<rect width="55.6475" height="55.6475" fill="white" transform="translate(0.302338)"/>
</clipPath>
</defs>
</svg>
